<?xml version="1.0" encoding="UTF-8" standalone="no"?>
<svg
   xmlns:dc="http://purl.org/dc/elements/1.1/"
   xmlns:cc="http://creativecommons.org/ns#"
   xmlns:rdf="http://www.w3.org/1999/02/22-rdf-syntax-ns#"
   xmlns:svg="http://www.w3.org/2000/svg"
   xmlns="http://www.w3.org/2000/svg"
   xmlns:sodipodi="http://sodipodi.sourceforge.net/DTD/sodipodi-0.dtd"
   xmlns:inkscape="http://www.inkscape.org/namespaces/inkscape"
   height="1792"
   viewBox="0 0 1792 1792"
   width="1792"
   version="1.1"
   id="svg4"
   sodipodi:docname="sign-out.svg"
   inkscape:version="0.92.4 (5da689c313, 2019-01-14)"
   inkscape:export-filename="D:\WampServer\www\modified-shop\ModifiedModuleLoaderClient\src\Templates\Images\sign-out.png"
   inkscape:export-xdpi="96"
   inkscape:export-ydpi="96">
  <metadata
     id="metadata10">
    <rdf:RDF>
      <cc:Work
         rdf:about="">
        <dc:format>image/svg+xml</dc:format>
        <dc:type
           rdf:resource="http://purl.org/dc/dcmitype/StillImage" />
      </cc:Work>
    </rdf:RDF>
  </metadata>
  <defs
     id="defs8" />
  <sodipodi:namedview
     pagecolor="#ffffff"
     bordercolor="#666666"
     borderopacity="1"
     objecttolerance="10"
     gridtolerance="10"
     guidetolerance="10"
     inkscape:pageopacity="0"
     inkscape:pageshadow="2"
     inkscape:window-width="1920"
     inkscape:window-height="1027"
     id="namedview6"
     showgrid="false"
     inkscape:snap-bbox="true"
     inkscape:bbox-paths="true"
     inkscape:bbox-nodes="true"
     inkscape:snap-bbox-edge-midpoints="true"
     inkscape:snap-bbox-midpoints="true"
     inkscape:object-paths="true"
     inkscape:snap-intersection-paths="true"
     inkscape:snap-smooth-nodes="true"
     inkscape:snap-midpoints="true"
     inkscape:snap-object-midpoints="true"
     inkscape:snap-center="true"
     inkscape:snap-text-baseline="true"
     inkscape:snap-page="true"
     inkscape:zoom="0.52678571"
     inkscape:cx="505.00989"
     inkscape:cy="798.54832"
     inkscape:window-x="-8"
     inkscape:window-y="-7"
     inkscape:window-maximized="1"
     inkscape:current-layer="svg4" />
  <path
     d="m 704,1440 q 0,4 1,20 1,16 0.5,26.5 -0.5,10.5 -3,23.5 -2.5,13 -10,19.5 -7.5,6.5 -20.5,6.5 H 352 Q 233,1536 148.5,1451.5 64,1367 64,1248 V 544 Q 64,425 148.5,340.5 233,256 352,256 h 320 q 13,0 22.5,9.5 9.5,9.5 9.5,22.5 0,4 1,20 1,16 0.5,26.5 -0.5,10.5 -3,23.5 -2.5,13 -10,19.5 Q 685,384 672,384 H 352 q -66,0 -113,47 -47,47 -47,113 v 704 q 0,66 47,113 47,47 113,47 h 312 l 11.5,1 11.5,3 8,5.5 7,9 z"
     id="path4538" />
  <path
     d="m 1436.6352,896.00001 q 0,19.3522 -14.142,33.49421 l -404.908,404.90808 q -14.142,14.1419 -33.49429,14.1419 -19.35222,0 -33.4942,-14.1419 -14.14201,-14.142 -14.14201,-33.4943 V 1086.5449 H 603.00107 q -19.35222,0 -33.49423,-14.1419 -14.142,-14.1421 -14.142,-33.4943 V 753.0913 q 0,-19.35223 14.142,-33.49424 14.14201,-14.14199 33.49423,-14.14199 H 936.4547 V 491.09201 q 0,-19.35222 14.14201,-33.49422 14.14198,-14.14201 33.4942,-14.14201 19.35229,0 33.49429,14.14201 l 404.908,404.90798 q 14.142,14.14201 14.142,33.49424 z"
     id="path2"
     inkscape:connector-curvature="0"
     style="stroke-width:1" />
</svg>
